<?xml version="1.0" encoding="UTF-8"?><svg id="Ebene_1" xmlns="http://www.w3.org/2000/svg" viewBox="0 0 278 278"><defs><style>.cls-1{fill:#fff;}.cls-2{fill:#fbc15e;stroke:#f6a30d;stroke-miterlimit:10;}.cls-3{fill:#c90c0f;}.cls-4{fill:#1d1d1b;}</style></defs><path class="cls-2" d="M.5,139c0,76.41,61.95,138.5,138.5,138.5s138.5-61.95,138.5-138.5S215.55,.5,139,.5,.5,62.59,.5,139"/><path class="cls-3" d="M64.41,139c0,41.16,33.43,74.59,74.59,74.59s74.59-33.43,74.59-74.59-33.43-74.59-74.59-74.59-74.59,33.43-74.59,74.59"/><path class="cls-4" d="M34.91,161.19c2.81-.7,5.06-.98,6.88-.56,1.83,.28,2.95,1.26,3.51,2.95,.42,1.55-.14,2.95-1.55,4.21s-3.51,2.25-6.32,2.95-5.06,.98-6.88,.56c-1.83-.28-2.95-1.26-3.37-2.81h0c-.42-1.55,.14-2.95,1.55-4.21,1.26-1.4,3.37-2.39,6.18-3.09m-2.11-7.59c-3.37,.98-6.04,2.39-7.87,4.07-1.83,1.83-2.95,3.65-3.37,5.9-.42,2.11-.42,4.21,.14,6.32,.56,2.11,1.55,3.93,2.95,5.48,1.55,1.69,3.37,2.67,5.9,3.37,2.39,.56,5.34,.56,8.85-.42,3.37-.98,6.04-2.39,7.87-4.07,1.83-1.83,2.95-3.65,3.37-5.9,.42-2.11,.42-4.21-.14-6.32s-1.55-3.93-3.09-5.48c-1.4-1.69-3.37-2.67-5.9-3.37-2.25-.56-5.2-.56-8.71,.42"/><polygon class="cls-4" points="38.57 206 43.34 213.73 67.78 198.42 64.27 192.66 47.42 203.19 47.28 203.19 60.2 186.2 55.42 178.61 30.98 193.78 34.49 199.54 51.49 189.01 51.63 189.15 38.57 206"/><polygon class="cls-4" points="52.75 223.84 65.68 235.5 69.61 231.15 62.45 224.68 77.9 207.69 72.14 202.49 52.75 223.84"/><rect class="cls-4" x="71.89" y="227.43" width="28.8" height="7.73" transform="translate(-157.87 194.83) rotate(-61.05)"/><polygon class="cls-4" points="108.8 255.87 117.65 258.12 125.09 230.3 118.49 228.62 113.44 247.72 113.29 247.72 111.19 226.51 102.48 224.26 95.03 252.08 101.5 253.9 106.69 234.52 106.83 234.66 108.8 255.87"/><polygon class="cls-4" points="131.41 259.66 149.53 259.38 149.53 253.76 138.86 253.9 138.72 247.72 148.41 247.58 148.27 241.82 138.72 241.96 138.58 236.48 148.69 236.34 148.55 230.58 130.85 230.87 131.41 259.66"/><rect class="cls-4" x="158.11" y="241.97" width="10.68" height="5.76" transform="translate(-54.64 47.1) rotate(-14.08)"/><path class="cls-4" d="M183.11,251.09c.7-.14,1.83-.42,3.09-.7s2.67-.84,4.35-1.69c3.09-1.55,5.2-3.37,6.32-5.76,1.12-2.39,.98-4.92-.28-7.73-.98-1.83-2.11-3.09-3.37-3.65-1.26-.56-2.67-.84-4.21-.7l-3.79,.14c-1.4,0-2.39,0-2.95-.28-.7-.28-1.12-.7-1.4-1.26-.42-.84-.42-1.55,0-2.25s1.12-1.26,2.11-1.83c.98-.56,2.11-.84,3.23-.98,1.12-.14,1.97-.28,2.81-.28l-2.25-5.2c-1.26,.14-2.53,.42-3.79,.84s-2.39,.84-3.37,1.4c-2.81,1.4-4.78,3.09-5.76,5.34-1.12,2.11-.98,4.49,.14,7.02,.84,1.83,1.97,3.23,3.37,3.93,1.4,.84,3.37,1.12,5.9,.98l1.83-.14c1.12-.14,2.11-.14,2.95,0,.7,.14,1.26,.56,1.69,1.4s.42,1.69,.14,2.39c-.28,.84-1.12,1.55-2.39,2.11s-2.53,.98-3.79,1.12-2.25,.28-2.81,.14l2.25,5.62Z"/><polygon class="cls-4" points="221.59 226.65 227.35 221.45 208.11 200.1 202.35 205.3 209.8 213.45 205.3 217.52 197.86 209.37 192.1 214.43 211.34 235.92 217.1 230.72 209.23 222.02 213.73 217.94 221.59 226.65"/><path class="cls-4" d="M227.77,197.43c-2.39-1.4-4.21-2.95-5.2-4.49-.98-1.55-1.12-3.09-.28-4.49s2.25-1.97,4.07-1.83c1.83,.14,3.93,.98,6.46,2.53s4.21,2.95,5.2,4.49c.98,1.55,1.12,2.95,.28,4.49h0c-.84,1.4-2.25,1.97-4.07,1.83-1.83-.14-3.93-.98-6.46-2.53m-4.07,6.74c3.09,1.83,5.9,2.67,8.43,2.81,2.53,0,4.78-.42,6.6-1.69,1.83-1.12,3.37-2.67,4.35-4.49,1.12-1.83,1.69-3.79,1.83-6.04,.14-2.11-.42-4.35-1.69-6.6-1.26-2.25-3.37-4.21-6.46-6.04-3.09-1.83-5.9-2.67-8.43-2.81-2.53,0-4.78,.42-6.6,1.69-1.83,1.12-3.37,2.67-4.35,4.49-1.12,1.83-1.69,3.79-1.83,6.04s.42,4.35,1.69,6.6c1.26,2.11,3.51,4.21,6.46,6.04"/><path class="cls-4" d="M240.42,166.25l-7.44-1.83,.28-1.12c.28-1.12,.84-1.97,1.55-2.53,.84-.42,1.83-.56,3.09-.28,1.12,.28,1.97,.84,2.39,1.69,.42,.84,.56,1.69,.42,2.81l-.28,1.26Zm5.48,.98l.84-3.09c.7-2.67,.42-5.06-.7-7.02s-3.09-3.37-5.9-4.07c-3.51-.84-6.18-.42-8.01,1.12s-3.09,3.79-3.79,6.88l-2.39,9.27,27.95,7.02,1.83-7.59-9.83-2.53Z"/><path class="cls-4" d="M45.73,96.16l1.69-3.51,4.92,2.39c0,.42,0,.7-.14,1.12s-.28,.84-.56,1.26c-.84,1.69-2.11,2.81-4.07,3.23s-4.07,.14-6.74-1.12c-2.53-1.26-4.35-2.81-5.34-4.78-.98-1.97-.84-4.35,.42-7.02,.56-1.26,1.26-2.25,1.97-3.09s1.4-1.55,2.25-1.97l-5.34-2.95c-.42,.42-1.12,1.12-1.83,2.25-.7,.98-1.55,2.39-2.39,4.07-1.55,3.23-2.11,6.32-1.97,8.99s.98,5.06,2.53,7.02,3.65,3.65,6.32,4.92c2.95,1.4,5.62,1.83,8.15,1.55,2.53-.28,4.78-1.26,6.88-2.95,1.97-1.69,3.65-3.79,4.92-6.6,.7-1.69,1.4-3.37,1.69-4.78,.42-1.55,.56-2.81,.56-3.79l-14.05-6.74-4.78,10.11,4.92,2.39Z"/><polygon class="cls-4" points="64.97 84.78 77.19 71.3 72.98 67.5 65.82 75.37 61.32 71.15 67.64 64.13 63.43 60.34 57.11 67.36 52.89 63.71 59.64 56.27 55.42 52.33 43.62 65.54 64.97 84.78"/><path class="cls-4" d="M80,49.8l-4.07-6.6,.98-.56c.98-.56,1.97-.84,2.81-.7s1.69,.84,2.39,1.97c.56,.98,.84,1.97,.56,2.81-.14,.98-.7,1.69-1.69,2.25l-.98,.84Zm3.23,4.64l2.81-1.69c2.39-1.55,3.79-3.37,4.35-5.62s.14-4.64-1.4-7.16c-1.97-2.95-4.07-4.64-6.6-4.78-2.39-.14-4.92,.56-7.44,2.25l-8.15,5.06,15.31,24.44,6.6-4.07-5.48-8.43Z"/><path class="cls-4" d="M117.79,50.37l7.73-2.11-4.92-8.01c-.98-1.69-1.97-2.81-2.67-3.37s-1.55-.84-2.39-.84v-.14c.84-.42,1.55-.98,2.25-1.69,.7-.7,1.12-1.55,1.55-2.53,.28-.98,.28-2.25,0-3.51-.7-2.53-1.97-4.21-3.79-5.06-1.83-.84-4.21-.84-7.02-.14l-11.1,2.95,7.44,27.81,7.44-1.97-2.95-10.96,.42-.14c.56-.28,1.26-.14,1.83,0,.7,.28,1.4,.98,2.11,2.11l4.07,7.59Zm-10.25-14.75l-1.69-6.32,2.11-.56c1.12-.28,1.97-.14,2.67,.28s1.12,1.12,1.4,2.11c.14,.98,.14,1.69-.42,2.39-.42,.7-1.12,1.12-1.97,1.4l-2.11,.7Z"/><path class="cls-4" d="M139.98,19.04l-7.59-.28-.56,17.98c-.14,2.81,.28,5.06,1.26,6.74,.98,1.69,2.25,2.95,3.79,3.65,1.69,.84,3.51,1.26,5.48,1.26,2.11,.14,3.93-.28,5.62-.84,1.69-.7,3.09-1.83,4.07-3.51s1.55-3.79,1.69-6.6l.56-17.98-7.59-.28-.7,18.26c0,1.69-.28,2.95-.84,3.79-.56,.98-1.4,1.4-2.81,1.4-1.26-.14-2.25-.56-2.67-1.55-.42-.98-.56-2.25-.56-3.93l.84-18.12Zm4.49-2.11l5.2,.14,.14-5.48-5.2-.14-.14,5.48Zm-7.3-.28l5.2,.14,.14-5.48-5.2-.14-.14,5.48Z"/><polygon class="cls-4" points="160.63 50.23 167.8 52.61 171.45 41.66 180.02 44.33 181.7 38.99 173.13 36.18 174.96 30.56 183.95 33.51 185.63 28.03 169.48 22.83 160.63 50.23"/><polygon class="cls-4" points="185.78 60.76 192.24 64.97 204.74 45.73 209.94 49.1 213.17 44.19 196.17 33.23 193.08 38.15 198.28 41.52 185.78 60.76"/><polygon class="cls-4" points="201.51 72.28 213.73 85.9 217.94 82.11 210.78 74.24 215.41 70.03 221.88 77.19 226.09 73.26 219.63 66.24 223.84 62.45 230.58 70.03 234.8 66.24 222.86 53.03 201.51 72.28"/><path class="cls-4" d="M222.86,103.6l3.37,7.3,7.02-6.18c1.55-1.4,2.53-2.39,2.81-3.23,.42-.84,.56-1.69,.28-2.53h.14c.56,.7,1.26,1.26,1.97,1.83,.84,.56,1.69,.84,2.81,.98,.98,.14,2.25-.14,3.51-.7,2.39-1.12,3.79-2.67,4.35-4.64,.42-1.97,.14-4.21-1.12-6.88l-4.92-10.39-26.13,12.22,3.23,7.02,10.25-4.78,.14,.42c.28,.56,.42,1.12,.28,1.83s-.7,1.55-1.69,2.39l-6.32,5.34Zm12.64-12.64l5.9-2.67,.98,1.97c.42,.98,.56,1.97,.14,2.67-.28,.7-.98,1.4-1.83,1.69-.84,.42-1.69,.42-2.39,.14-.84-.28-1.4-.84-1.69-1.69l-1.12-2.11Z"/><path class="cls-1" d="M182.4,115.12h8.29s.56,0,.7,.56c.14,.42,0,45.93,0,45.93,0,0,0,.56-.7,.56h-8.29c-.7,0-.7-.7-.7-.7v-45.93c.14,.14,.14-.28,.7-.42"/><polygon class="cls-1" points="130.15 113.58 139.98 113.58 139.98 134.22 159.93 134.22 159.93 113.58 169.76 113.58 169.76 164.56 159.93 164.56 159.93 142.23 139.98 142.23 139.98 164.56 130.15 164.56 130.15 113.58"/><rect class="cls-1" x="181.14" y="113.58" width="10.96" height="50.99"/><polygon class="cls-1" points="86.75 113.58 120.46 113.58 120.46 121.58 98.26 121.58 98.26 134.22 118.63 134.22 118.63 142.23 98.26 142.23 98.26 156.56 120.74 156.56 120.74 164.56 86.75 164.56 86.75 113.58"/></svg>