<?xml version="1.0" encoding="utf-8"?>
<!-- Generator: Adobe Illustrator 24.2.1, SVG Export Plug-In . SVG Version: 6.00 Build 0)  -->
<svg version="1.1" id="Ebene_1" xmlns="http://www.w3.org/2000/svg" xmlns:xlink="http://www.w3.org/1999/xlink" x="0px" y="0px"
	 viewBox="0 0 204.1 204.1" style="enable-background:new 0 0 204.1 204.1;" xml:space="preserve">
<style type="text/css">
	.st0{fill:#5C5C5C;}
	.st1{fill:url(#SVGID_1_);}
	.st2{fill:#FFFFFF;}
	.st3{fill:#FF6600;}
</style>
<circle class="st0" cx="102" cy="102" r="99.2"/>
<linearGradient id="SVGID_1_" gradientUnits="userSpaceOnUse" x1="9.9748" y1="190.9953" x2="185.6805" y2="22.9801" gradientTransform="matrix(1 0 0 -1 0 205)">
	<stop  offset="0" style="stop-color:#3269AD"/>
	<stop  offset="1" style="stop-color:#000347"/>
</linearGradient>
<circle class="st1" cx="102" cy="102" r="93.8"/>
<path class="st2" d="M54.6,160.2c-1.1,1.5-2.2,2.2-3.2,2.1c-1-0.1-2.6-0.9-4.6-2.7c-0.2-0.2-0.4-0.4-0.6-0.6c-1.1-1-2.1-2-3.1-3
	c-1.1,1-2.1,2.1-3.2,3.1c-0.9-0.9-1.8-1.9-2.7-2.9c3.4-3.1,6.9-6.1,10.3-9.2c1.6,1.8,3.2,3.4,4.9,5c0.2,0.2,0.4,0.4,0.6,0.6
	c1.7,1.5,2.7,2.8,2.9,3.8C56.2,157.5,55.8,158.7,54.6,160.2L54.6,160.2z M51.2,154c-1-0.9-2-1.9-3-2.9c-1.2,1.2-2.4,2.3-3.5,3.5
	c1,1,1.9,1.9,2.9,2.9c1.2,1.1,2.1,1.7,2.6,1.7c0.5,0.1,1.1-0.3,1.7-1.1c0.8-0.9,1.1-1.6,1-2C52.8,155.7,52.3,155,51.2,154L51.2,154z
	 M68.5,178.6c-1.2-0.5-2.3-1-3.5-1.5c0-1,0-2,0-2.9c-2.4-1.2-4.9-2.5-7.2-3.9c-0.8,0.5-1.6,1.1-2.4,1.6c-1.1-0.7-2.2-1.4-3.3-2.2
	c4.5-2.5,8.7-5.3,12.6-8.3c1.4,0.8,2.7,1.6,4.1,2.3C68.3,168.5,68.2,173.5,68.5,178.6L68.5,178.6z M59.5,169
	c1.8,1.1,3.7,2.1,5.6,3.1c0.1-2.6,0.3-5.2,0.6-7.8C63.7,165.9,61.7,167.4,59.5,169L59.5,169z M89.5,174.4c-0.2,1.4-0.6,2.3-1.1,2.7
	c-0.5,0.4-1.4,0.6-2.7,0.6c0,0,0,0.1,0,0.1c1.9,0.5,2.8,1.5,2.5,3.2c-0.2,1-0.3,2-0.5,3c-1.2-0.2-2.4-0.4-3.6-0.6
	c0.2-0.8,0.3-1.6,0.5-2.5c0.3-1.4-0.5-2.3-2.3-2.7c-1.6-0.4-3.2-0.8-4.8-1.3c-0.5,1.5-0.9,3-1.4,4.5c-1.2-0.4-2.3-0.7-3.5-1.1
	c1.5-4.3,3.1-8.7,4.6-13c2.5,0.9,5.1,1.6,7.7,2.2c1.9,0.4,3.2,1,3.9,1.7C89.5,171.8,89.7,172.9,89.5,174.4L89.5,174.4z M86.1,172.4
	c-0.2-0.3-0.9-0.6-1.9-0.9c-1.5-0.4-3.1-0.8-4.6-1.2c-0.5,1.5-0.9,3-1.4,4.5c1.5,0.5,3.1,0.9,4.7,1.3c1.1,0.3,1.9,0.3,2.3,0
	c0.4-0.2,0.7-0.8,0.9-1.8C86.4,173.4,86.3,172.7,86.1,172.4L86.1,172.4z M101.3,173.6c0,3.8,0,7.7,0,11.5c-1.2,0-2.4,0-3.6-0.1
	c0.2-3.8,0.3-7.6,0.5-11.5c-1.6-0.1-3.2-0.2-4.8-0.4c0.1-0.8,0.2-1.6,0.3-2.3c4.1,0.4,8.3,0.5,12.5,0.3c0.1,0.8,0.1,1.6,0.2,2.3
	C104.6,173.6,103,173.7,101.3,173.6L101.3,173.6z M123.2,182.4c-2.4-2-4.7-4.1-6.8-6.2c-0.3-0.3-0.8-0.9-1.5-1.7
	c-0.2-0.3-0.5-0.6-0.7-0.9c-0.2-0.3-0.5-0.6-0.7-0.9c0,0-0.1,0-0.1,0c0.1,0.3,0.1,0.6,0.2,0.9c0.1,0.3,0.1,0.6,0.2,0.9
	c0.1,0.6,0.2,1.2,0.3,1.8c0.4,2.6,0.9,5.2,1.3,7.8c-1.2,0.2-2.4,0.4-3.6,0.5c-0.6-4.6-1.1-9.2-1.7-13.7c1.7-0.2,3.4-0.5,5.1-0.8
	c1.8,2,3.8,4,5.8,5.9c0.5,0.5,1.2,1.1,2,1.8c0.3,0.3,0.6,0.6,1,0.9c0.3,0.3,0.7,0.6,1,0.9c0,0,0.1,0,0.1,0c-0.1-0.3-0.2-0.6-0.3-0.8
	c-0.1-0.3-0.2-0.6-0.3-0.8c-0.2-0.6-0.4-1.1-0.5-1.7c-0.7-2.5-1.5-5.1-2.2-7.6c1-0.3,2-0.6,2.9-0.9c1.5,4.4,3,8.7,4.4,13.1
	C127.1,181.3,125.2,181.8,123.2,182.4L123.2,182.4z M145.5,170.5c0.4,0.6,0.8,1.3,1.2,1.9c-3.9,2.4-7.9,4.4-12,6.1
	c-1.8-4.3-3.6-8.5-5.3-12.8c3.4-1.4,6.8-3.1,10-5.1c0.4,0.6,0.8,1.3,1.2,1.9c-2.4,1.5-4.9,2.8-7.4,4c0.5,1.1,1,2.2,1.5,3.2
	c2.5-1.2,5-2.5,7.3-3.9c0.3,0.6,0.7,1.1,1,1.7c-2.4,1.5-5,2.8-7.5,4c0.6,1.2,1.1,2.4,1.7,3.5C140,173.7,142.8,172.2,145.5,170.5
	L145.5,170.5z M161,161.2c-0.6-0.6-1.2-1.2-1.7-1.8c-1-1-2.2-0.8-3.6,0.5c-1.3,1.2-2.6,2.3-4,3.4c1,1.2,1.9,2.4,2.9,3.7
	c-1,0.8-2,1.5-3,2.3c-2.7-3.8-5.4-7.5-8-11.3c2.2-1.6,4.4-3.3,6.5-5.2c1.5-1.4,2.8-2.2,3.8-2.4c1-0.2,2,0.3,3.2,1.3
	c1,1,1.6,1.8,1.6,2.5c0.1,0.7-0.3,1.6-1.2,2.7c0,0,0,0,0.1,0.1c1.6-1.4,3-1.6,4.2-0.4c0.7,0.7,1.5,1.4,2.2,2.1
	C162.9,159.4,161.9,160.3,161,161.2L161,161.2z M154.7,154.4c-0.7-0.7-1.2-1.1-1.7-1c-0.4,0-1,0.4-1.9,1.1c-1.2,1.1-2.5,2.2-3.8,3.2
	c1,1.2,2,2.5,2.9,3.7c1.3-1,2.6-2.1,3.9-3.3c0.9-0.8,1.4-1.5,1.5-2C155.7,155.7,155.4,155.1,154.7,154.4L154.7,154.4z"/>
<path class="st2" d="M27.5,114V93h7.9v21H27.5L27.5,114z M27.5,84.2h7.9v6.2h-7.9V84.2L27.5,84.2z M62,114v-3.9h-0.1
	c-0.2,0.7-0.5,1.2-0.9,1.8c-0.4,0.5-0.9,0.9-1.5,1.3c-0.6,0.4-1.3,0.7-2.2,0.8c-0.9,0.2-1.9,0.3-3.1,0.3H52c-2.5,0-4.5-0.2-6-0.6
	c-1.5-0.4-2.6-1-3.4-1.8s-1.3-1.7-1.5-2.8c-0.2-1.1-0.3-2.3-0.3-3.7v-3.8c0-1.3,0.1-2.6,0.3-3.7c0.2-1.1,0.7-2,1.5-2.8
	c0.8-0.8,1.9-1.4,3.4-1.8s3.5-0.6,6-0.6h2.3c0.8,0,1.6,0.1,2.4,0.2c0.8,0.1,1.5,0.3,2.2,0.7c0.7,0.3,1.2,0.8,1.6,1.3
	c0.4,0.5,0.7,1.2,0.9,2h0.1V84.2h7.9V114L62,114L62,114z M62,102.4c0-0.8-0.1-1.4-0.3-1.9s-0.5-0.9-0.9-1.2
	c-0.4-0.3-0.9-0.5-1.5-0.6c-0.6-0.1-1.3-0.2-2.1-0.2h-4.7c-1,0-1.7,0.1-2.3,0.2c-0.6,0.2-1,0.4-1.2,0.7c-0.3,0.3-0.5,0.7-0.5,1.2
	c-0.1,0.5-0.1,1-0.1,1.6v2.5c0,0.6,0,1.1,0.1,1.6c0.1,0.5,0.3,0.9,0.5,1.2c0.3,0.3,0.7,0.5,1.2,0.7c0.5,0.2,1.3,0.2,2.3,0.2h4.7
	c0.8,0,1.5-0.1,2.1-0.2c0.6-0.1,1.1-0.3,1.5-0.6c0.4-0.3,0.7-0.7,0.9-1.2s0.3-1.1,0.3-1.9L62,102.4L62,102.4z M83,108.8
	c0.8,0.4,2,0.6,3.7,0.6h2.4c1.1,0,1.9-0.1,2.5-0.2c0.6-0.1,1.1-0.3,1.3-0.5s0.5-0.5,0.5-0.8c0.1-0.3,0.1-0.6,0.1-0.9h7.4v0.9
	c0,1.3-0.3,2.4-0.8,3.2c-0.6,0.8-1.3,1.5-2.2,2c-0.9,0.5-2.1,0.8-3.3,1c-1.3,0.2-2.6,0.3-4,0.3h-5.9c-1.3,0-2.6-0.1-3.9-0.3
	s-2.4-0.6-3.4-1.3c-1-0.7-1.8-1.7-2.5-3c-0.6-1.3-0.9-3.1-0.9-5.4v-2c0-2,0.2-3.6,0.7-4.9c0.5-1.3,1.1-2.2,2-3
	c0.9-0.7,1.9-1.2,3.1-1.5c1.2-0.3,2.5-0.4,4-0.4h5.5c2.1,0,3.9,0.1,5.4,0.4c1.5,0.3,2.7,0.7,3.7,1.4c0.9,0.7,1.6,1.6,2.1,2.8
	c0.5,1.2,0.7,2.7,0.7,4.5v3.5H81.8v1.3C81.8,107.7,82.2,108.4,83,108.8L83,108.8z M93.3,100.6c0-0.6-0.1-1.1-0.2-1.5
	c-0.2-0.4-0.5-0.7-0.9-0.9c-0.4-0.2-1-0.4-1.8-0.4c-0.7-0.1-1.7-0.1-2.8-0.1c-1.3,0-2.3,0-3.1,0.1c-0.8,0.1-1.3,0.2-1.7,0.4
	c-0.4,0.2-0.7,0.5-0.8,0.9c-0.1,0.4-0.2,0.9-0.2,1.5H93.3L93.3,100.6z M124.4,114v-2.4c-0.6,0.6-1,1-1.5,1.4
	c-0.4,0.3-0.9,0.6-1.4,0.8c-0.5,0.2-1,0.3-1.7,0.4c-0.6,0.1-1.5,0.1-2.5,0.1H112c-1.2,0-2.3-0.1-3.3-0.2c-1-0.1-1.8-0.4-2.5-0.9
	c-0.7-0.4-1.2-1.1-1.6-1.8c-0.4-0.8-0.6-1.8-0.6-3v-1.7c0-1.4,0.2-2.5,0.7-3.4c0.5-0.8,1.2-1.4,2.2-1.8c1-0.4,2.2-0.6,3.6-0.7
	c1.4-0.1,3.1-0.1,5-0.1c1.1,0,2,0,2.9,0s1.6,0.1,2.3,0.2c0.7,0.1,1.3,0.3,1.7,0.5s0.9,0.5,1.3,0.9v-1.9c0-0.5,0-1-0.1-1.3
	c-0.1-0.4-0.3-0.6-0.6-0.9c-0.3-0.2-0.7-0.4-1.1-0.5c-0.5-0.1-1.1-0.1-1.9-0.1h-4.7c-1.2,0-1.9,0.1-2.4,0.3
	c-0.4,0.2-0.7,0.7-0.7,1.4h-7.7c0-1.4,0.2-2.6,0.5-3.4c0.4-0.9,0.9-1.5,1.7-2c0.8-0.5,1.8-0.8,2.9-0.9s2.6-0.2,4.3-0.2h9.2
	c2.7,0,4.8,0.6,6.2,1.9c1.4,1.3,2.1,3.1,2.1,5.6V114L124.4,114L124.4,114z M124,106.2c-0.1-0.3-0.3-0.5-0.6-0.7
	c-0.3-0.2-0.8-0.3-1.4-0.4c-0.6-0.1-1.5-0.1-2.6-0.1h-3.5c-0.8,0-1.5,0-2,0.1c-0.5,0.1-0.9,0.2-1.2,0.5c-0.3,0.2-0.5,0.5-0.6,0.8
	c-0.1,0.3-0.2,0.7-0.2,1.1c0,0.7,0.3,1.2,0.9,1.5c0.6,0.3,1.7,0.4,3.3,0.4h2.3c1.3,0,2.4,0,3.2-0.1c0.8-0.1,1.4-0.2,1.8-0.4
	c0.4-0.2,0.7-0.4,0.8-0.7c0.1-0.3,0.2-0.6,0.2-0.9C124.1,106.8,124.1,106.4,124,106.2L124,106.2z M137.4,114V84.2h7.9V114L137.4,114
	L137.4,114z M179,110.2c-0.5,1.1-1.2,1.9-2,2.5c-0.8,0.6-1.8,1-2.8,1.2c-1,0.2-2.1,0.3-3.1,0.3h-11.8c-1,0-2-0.1-3.1-0.3
	c-1-0.2-2-0.6-2.8-1.2c-0.8-0.6-1.5-1.4-2-2.5c-0.5-1.1-0.8-2.5-0.8-4.2v-5c0-1.7,0.3-3.1,0.8-4.2c0.5-1.1,1.2-1.9,2-2.5
	c0.8-0.6,1.8-1,2.8-1.2c1-0.2,2.1-0.3,3.1-0.3h11.8c1,0,2,0.1,3.1,0.3c1,0.2,2,0.6,2.8,1.2c0.8,0.6,1.5,1.4,2,2.5
	c0.5,1.1,0.8,2.5,0.8,4.2v5C179.8,107.7,179.6,109.1,179,110.2L179,110.2z M171.9,102c0-0.7-0.1-1.3-0.2-1.7
	c-0.2-0.5-0.5-0.8-0.9-1.1c-0.5-0.3-1.1-0.4-1.9-0.5c-0.8-0.1-1.8-0.1-3.1-0.1h-1.9c-1.8,0-3.2,0.3-4.1,0.8
	c-0.9,0.6-1.3,1.6-1.3,3.1v2c0,1.5,0.4,2.5,1.3,3.1c0.9,0.6,2.2,0.8,4.1,0.8h1.9c1.3,0,2.3,0,3.1-0.1c0.8-0.1,1.4-0.3,1.9-0.5
	c0.5-0.3,0.8-0.6,0.9-1.1c0.1-0.4,0.2-1,0.2-1.7V102L171.9,102z"/>
<path class="st2" d="M41.7,71.1c-1.5,2.7-2.9,4.2-4.2,4.6c-1.3,0.4-3.3-0.2-6-1.6c-3.4-1.9-5.4-3.2-6.1-4.1c-0.8-1-1.2-2.1-1.1-3.2
	c0.1-1.1,0.7-2.7,1.9-4.8c1.5-2.7,2.8-4.3,3.8-4.8s2.5-0.2,4.5,1l-1.6,3c-1-0.5-1.8-0.6-2.2-0.4c-0.5,0.3-1.1,1.2-2,2.7
	c-0.9,1.7-1.3,2.9-1.2,3.6c0.2,0.7,1,1.5,2.6,2.3l1.5,0.9l2,1.1c1.5,0.9,2.6,1.2,3.3,0.9s1.5-1.1,2.4-2.8c0.9-1.6,1.3-2.7,1.2-3.3
	c-0.1-0.6-0.8-1.3-2.1-2l-0.6-0.4l-2.2,3.9l-2.2-1.2l3.8-6.8l3.1,1.7c2.2,1.2,3.4,2.5,3.6,3.7S43.3,68.2,41.7,71.1L41.7,71.1z
	 M55,49.8l2,2l-8.5,8.7L35.9,48.1l8.5-8.6l2,2l-6.1,6.2l3.2,3.2l5.8-5.9l1.8,1.7l-5.8,5.9l3.6,3.5L55,49.8L55,49.8z M61.1,48.7
	l-9.3-15l2.8-1.8l7.8,12.4l7-4.4l1.6,2.5L61.1,48.7L61.1,48.7z M75,41l-6.5-16.4l3.1-1.2l6.5,16.4L75,41L75,41z M95.3,34.6
	c-0.8,0.8-2.7,1.5-5.7,2.1c-2.7,0.5-4.6,0.5-5.6,0c-1-0.5-1.7-1.8-2.1-3.8l-0.1-0.6l3.2-0.6l0.1,0.4c0.2,1.2,0.6,1.9,1,2.1
	c0.5,0.2,1.7,0.1,3.5-0.2c1.5-0.3,2.4-0.6,2.7-1c0.3-0.4,0.4-1.1,0.2-2.3c-0.2-0.8-0.4-1.4-0.8-1.6c-0.4-0.2-1.1-0.3-2.1-0.1
	L88,29.2c-2.8,0.3-4.6,0.3-5.5-0.2c-0.9-0.5-1.5-1.7-1.8-3.7c-0.4-2-0.2-3.5,0.6-4.3c0.8-0.8,2.6-1.5,5.3-2c2.6-0.5,4.4-0.5,5.4,0
	c1,0.5,1.7,1.6,2,3.4l0.1,0.7L91,23.6c0-0.2-0.1-0.3-0.1-0.4c-0.3-1-0.6-1.5-1-1.7s-1.3-0.2-2.6,0.1c-1.6,0.3-2.6,0.6-3,1
	c-0.4,0.4-0.6,1-0.4,1.9c0.2,1.1,0.5,1.7,0.9,1.9c0.4,0.1,1.8,0.1,4-0.2c2.6-0.3,4.4-0.3,5.2,0.2c0.9,0.5,1.5,1.6,1.8,3.5
	C96.3,32.2,96.1,33.8,95.3,34.6L95.3,34.6z M115.3,21.5l-5.3-0.4l-1.1,14.6l-3.3-0.3l1.1-14.6l-5.1-0.4l0.2-3l13.7,1L115.3,21.5
	L115.3,21.5z M134.2,26.7l-8.3-2.7l-1.4,4.3l7.9,2.6l-0.8,2.3l-7.9-2.6l-1.6,4.7l8.4,2.7l-0.9,2.7L118.1,37l5.5-16.8L135,24
	L134.2,26.7L134.2,26.7z M152.5,37.2l-4.5-2.8l-7.8,12.4l-2.8-1.8l7.8-12.4l-4.3-2.7l1.6-2.5l11.6,7.3L152.5,37.2L152.5,37.2z
	 M166.8,50.6l-6.1-6.3l-3.3,3.2l5.7,6l-1.8,1.7l-5.7-6l-3.6,3.5l6.1,6.3l-2,2l-8.4-8.7L160.4,40l8.4,8.7L166.8,50.6L166.8,50.6z
	 M180.2,68.8c-0.3,1.1-1.3,2.1-3,3c-1.6,0.9-2.7,1.3-3.5,1.2c-0.8,0-1.6-0.6-2.4-1.5l-0.1,0.1c0.8,1.8,0.3,3.2-1.6,4.2l-3.4,1.9
	l-1.6-2.9l2.8-1.6c1.6-0.9,2-2.1,1.1-3.7l-2.3-4.2l-5.2,2.9l-1.6-2.9l15.5-8.5l4.2,7.6C180.1,66.2,180.5,67.7,180.2,68.8L180.2,68.8
	z M176.4,65.4L174,61l-5.3,2.9l2.3,4.2c0.6,1,1.1,1.6,1.6,1.7c0.5,0.1,1.3-0.1,2.4-0.7c1.1-0.6,1.7-1.1,1.9-1.6
	C177.2,67.1,177,66.4,176.4,65.4L176.4,65.4z"/>
<rect x="24.4" y="118.9" class="st3" width="157.1" height="7.5"/>
</svg>
