<?xml version="1.0" encoding="UTF-8"?>
<svg width="258.4" height="141.7" version="1.1" viewBox="0 0 68.367 37.491" xmlns="http://www.w3.org/2000/svg">
 <g transform="translate(-70.908 -129.65)">
  <g transform="matrix(.26458 0 0 .26458 61.833 126.58)">
   <rect class="st0" x="34.3" y="11.6" width="258.4" height="141.7" fill="#ffe500"/>
  </g>
  <g transform="matrix(.26458 0 0 .26458 61.833 126.58)">
   <g fill="#dc0d15">
    <path class="st1" d="m259.3 117c0-0.8-0.6-1.2-1.3-1.2h-0.5v-1.7c0-0.8-0.5-1.4-1.3-1.4s-1.3 0.6-1.3 1.4v1.7c-0.8 0-1.5 0.3-1.5 1.2s0.7 1.2 1.5 1.2v5.6c0 0.8 0.5 1.4 1.3 1.4s1.3-0.7 1.3-1.4v-5.6h0.5c0.7 0 1.3-0.5 1.3-1.2z"/>
    <path class="st1" d="m252.8 123.8v-3.5c0-1.3-0.3-2.4-1.3-3.4-0.8-0.8-1.9-1.3-3-1.3-2.6 0-4.2 2.1-4.2 4.5v3.6c0 0.8 0.5 1.4 1.3 1.4s1.3-0.7 1.3-1.4v-3.9c0-0.9 0.6-1.7 1.6-1.7 0.6 0 1.2 0.4 1.4 0.9 0.2 0.4 0.2 0.9 0.2 1.4v3.3c0 0.8 0.5 1.4 1.3 1.4 0.9 0.1 1.4-0.6 1.4-1.3z"/>
    <path class="st1" d="m243.3 120.7v-3.6c0-0.8-0.5-1.4-1.3-1.4s-1.3 0.7-1.3 1.4v3.8c0 0.9-0.6 1.7-1.6 1.7-0.6 0-1.2-0.4-1.4-0.9-0.2-0.4-0.2-0.9-0.2-1.3v-3.3c0-0.8-0.5-1.4-1.3-1.4s-1.3 0.7-1.3 1.4v3.5c0 1.3 0.3 2.4 1.2 3.4 0.8 0.8 1.9 1.3 3 1.3 2.6 0 4.2-2.1 4.2-4.6z"/>
    <path class="st1" d="m233.9 120.5c0-2.7-2.2-4.9-4.8-4.9-2.7 0-4.9 2.2-4.9 4.9s2.3 4.7 4.9 4.7c2.6 0.1 4.8-2 4.8-4.7zm-2.6 0c0 1.2-1 2.2-2.2 2.2s-2.3-0.9-2.3-2.1c0-1.3 1-2.3 2.2-2.3 1.3-0.1 2.3 1 2.3 2.2z"/>
    <path class="st1" d="m223.6 122.9c0-0.7-0.6-1.3-1.3-1.3-0.9 0-1.2 1-2.5 1-1.2 0-2.2-1-2.2-2.2 0-1.3 1-2.2 2.3-2.2 1.2 0 1.5 0.9 2.3 0.9 0.7 0 1.3-0.6 1.3-1.3 0-1.5-2.6-2.3-3.8-2.3-2.6 0-4.8 2.2-4.8 4.8 0 2.7 2.2 4.9 4.9 4.9 1.1 0.1 3.8-0.8 3.8-2.3z"/>
    <path class="st1" d="m211.3 119.2c-0.4-0.1-0.9-0.2-1.3-0.3-0.3-0.1-0.8-0.2-0.8-0.6s0.3-0.7 0.7-0.7c1.3-0.1 1.5 0.7 2.6 0.7 0.5-0.1 0.8-0.4 0.9-0.9 0.1-1.3-2.1-1.9-3.2-1.9-1.7 0-3.4 0.9-3.4 2.8 0 1 0.6 1.9 1.4 2.3 0.7 0.4 1.5 0.5 2.3 0.8 0.4 0.1 0.8 0.2 0.8 0.7 0 0.4-0.5 0.8-0.9 0.8-1.5 0-1.6-1.1-2.8-1.3-0.7-0.1-1.4 0.4-1.4 1.1 0 1.7 2.5 2.5 3.9 2.5 2 0 3.7-1.1 3.7-3.2 0.3-1.9-1.2-2.5-2.5-2.8z"/>
    <path class="st1" d="m205.3 123.8v-6.6c0-0.8-0.5-1.4-1.3-1.4s-1.3 0.7-1.3 1.4v6.6c0 0.8 0.5 1.4 1.3 1.4s1.3-0.7 1.3-1.4z"/>
    <path class="st1" d="m205.5 113.6c0-0.9-0.7-1.6-1.5-1.6-0.9 0-1.6 0.7-1.6 1.6s0.7 1.5 1.6 1.5c0.8 0 1.5-0.7 1.5-1.5z"/>
    <path class="st1" d="m201.4 118.6c0-2.5-1.5-5-3.9-6-1.1-0.5-1.9-0.5-3.2-0.5h-2.9c-1.1 0-1.7 0.6-1.7 1.7v9.6c0 1.1 0.6 1.7 1.7 1.7h2.9c2 0 3.6-0.4 5.1-1.9 1.3-1.2 2-2.9 2-4.6zm-3 0c0 1.6-1 3.1-2.5 3.6-0.6 0.2-1.2 0.2-1.8 0.2h-1.3v-7.5h1.3c2.3-0.1 4.3 1.2 4.3 3.7z"/>
    <path class="st1" d="m180.2 123.8v-3.5c0-1.3-0.3-2.4-1.3-3.4-0.8-0.8-1.9-1.3-3-1.3-2.6 0-4.2 2.1-4.2 4.5v3.6c0 0.8 0.5 1.4 1.3 1.4s1.3-0.7 1.3-1.4v-3.9c0-0.9 0.6-1.7 1.6-1.7 0.6 0 1.2 0.4 1.4 0.9 0.2 0.4 0.2 0.9 0.2 1.4v3.3c0 0.8 0.5 1.4 1.3 1.4 1 0.1 1.4-0.6 1.4-1.3z"/>
    <path class="st1" d="m169.3 122h-0.2c-0.1 0-0.1 0-0.2 0.1-0.2 0.1-0.3 0.2-0.5 0.3-0.2 0.2-0.4 0.3-0.7 0.4-0.2 0.1-0.5 0.1-0.9 0.1h-0.1c-0.5 0-1.1-0.3-1.6-0.7l-0.1-0.1 4.7-2.1c0.6-0.3 1-0.6 1-1.2 0-2-2.3-3.2-4-3.2-2.6 0-4.8 2.2-4.8 4.8s2.2 4.9 4.9 4.9c0.5 0 0.9-0.1 1.4-0.2 0.9-0.2 2.3-1 2.3-2.1-0.1-0.7-0.4-1-1.2-1zm-5.1-1.7c0-1.3 1.2-2.5 2.7-2.5 0.7 0 1.2 0.3 1.5 0.8l0.1 0.1-4.3 1.8z"/>
    <path class="st1" d="m161.5 123.9c0-0.5-0.4-0.9-0.7-1.2l-2.7-2.6 2.5-1.8c0.5-0.3 0.9-0.7 0.9-1.3 0-0.7-0.6-1.3-1.3-1.3-0.5 0-0.8 0.3-1.2 0.6l-3.2 2.5v-5.2c0-0.8-0.4-1.4-1.3-1.4-0.8 0-1.3 0.7-1.3 1.4v10.3c0 0.8 0.5 1.4 1.3 1.4s1.3-0.7 1.3-1.4v-2.5l3.1 3.3c0.4 0.4 0.7 0.7 1.2 0.7 0.8-0.2 1.4-0.8 1.4-1.5z"/>
    <path class="st1" d="m152.4 117.2c0-0.9-0.8-1.6-1.7-1.6-0.7 0-1.5 0.3-2 0.8-0.2-0.5-0.7-0.8-1.2-0.8-0.6 0-1.1 0.4-1.2 1-0.1 0.2-0.1 0.5-0.1 0.7v6.4c0 0.8 0.5 1.4 1.3 1.4s1.3-0.7 1.3-1.4v-4.3c0-0.4 0-1.2 0.6-1.2 0.5 0 0.8 0.5 1.4 0.5 0.8 0.1 1.6-0.6 1.6-1.5z"/>
    <path class="st1" d="m144.8 123.8v-6.7c0-0.8-0.5-1.4-1.4-1.4-0.7 0-1.1 0.3-1.3 1-0.7-0.7-1.7-1-2.7-1-2.7 0-4.5 2.2-4.5 4.8s1.9 4.9 4.5 4.9c1 0 1.9-0.4 2.7-1.1 0.2 0.6 0.6 1 1.3 1 0.9-0.1 1.4-0.7 1.4-1.5zm-2.7-3.4c0 1.2-1 2.2-2.2 2.2-1.3 0-2.2-1-2.2-2.3 0-1.2 1-2.2 2.2-2.2 1.2 0.1 2.2 1.1 2.2 2.3z"/>
    <path class="st1" d="m134.4 123.7c0-0.3-0.1-0.6-0.2-0.9l-2.3-9.6c-0.2-0.7-0.7-1.3-1.4-1.3-0.8 0-1.2 0.6-1.5 1.3l-2 6.2-2.1-6.3c-0.2-0.6-0.7-1.1-1.4-1.1-0.8 0-1.3 0.5-1.4 1.3l-2.3 9.7c-0.1 0.3-0.1 0.6-0.1 0.9 0 0.8 0.7 1.4 1.5 1.4 1 0 1.4-0.8 1.6-1.6l1.2-5.5 1.7 5.9c0.2 0.6 0.6 1.3 1.3 1.3 0.6 0 1.1-0.4 1.3-1 0-0.1 0.1-0.2 0.1-0.3l1.8-5.9 1.3 5.5c0.2 0.9 0.5 1.6 1.6 1.6 0.6-0.1 1.3-0.8 1.3-1.6z"/>
    <path class="st1" d="m186.2 118.6c0.8 0 1.4 0.5 1.4 1.3s-0.7 1.3-1.4 1.3h-2.6c-0.8 0-1.4-0.5-1.4-1.3s0.6-1.3 1.4-1.3z"/>
    <path class="st1" d="m236.8 102.3c1.5 0 3.1-0.1 4.6-0.3 3.3-0.4 6.3-1.3 9-2.9 2.8-1.6 5.1-3.9 7-6.6 1.2-1.8 2.2-3.7 3-5.7 0.8-1.9 1.4-3.9 1.8-6 0.4-2 0.7-4 0.8-6.1 0.1-2 0-4.1-0.1-6.2-0.2-1.8-0.6-3.5-1.2-5-0.6-1.6-1.5-3-2.6-4.2s-2.4-2.2-3.9-3.1c-1.4-0.8-3-1.4-4.7-1.8-1.2-0.3-2.5-0.5-3.8-0.7-1.3-0.1-2.6-0.2-3.9-0.2h-1.6c-1.2 0.1-2.3 0.2-3.4 0.4s-2.2 0.4-3.2 0.7c-1.1 0.3-2.1 0.7-3.1 1.2s-1.9 1-2.8 1.6-1.8 1.3-2.6 2c-0.5 0.5-1.1 1-1.5 1.6l0.2-0.9c0.3-1.5-0.1-3-1-4.2-0.9-1.1-2.4-1.8-3.9-1.8h-5l0.8-4.4c0.3-1.5-0.1-3-1-4.2-0.9-1.1-2.4-1.8-3.9-1.8h-8c-1.3 0-2.6 0.5-3.6 1.3s-1.7 2-1.9 3.3l-1.1 5.8h-9l0.8-4.4c0.3-1.5-0.1-3-1-4.2-0.9-1.1-2.4-1.8-3.9-1.8h-8c-1.3 0-2.6 0.5-3.6 1.3s-1.7 2-1.9 3.3l-1.1 5.8h-2.6c-1.3 0-2.6 0.5-3.6 1.3s-1.7 2-1.9 3.3l-0.3 1.7c-1.1-1.6-2.6-2.9-4.3-4-1.7-1-3.6-1.7-5.6-2.1-2.1-0.5-4.3-0.7-6.7-0.7-0.8 0-1.5 0-2.3 0.1-1.2 0.1-2.4 0.2-3.5 0.4-1.2 0.2-2.3 0.5-3.3 0.8-1.1 0.3-2.2 0.7-3.2 1.2s-2 1-2.9 1.6-1.8 1.3-2.7 2.1c-0.8 0.8-1.6 1.6-2.4 2.5-0.7 0.9-1.4 1.9-2 2.9-0.2 0.3-0.3 0.6-0.5 0.9 0 0 0 0.1-0.1 0-0.1 0 0-0.1 0-0.1l3.9-20c0.3-1.5-0.1-3-1-4.2-0.9-1.1-2.4-1.8-3.9-1.8h-8.9c-1.3 0-2.6 0.5-3.6 1.3s-1.7 2-1.9 3.3l-3.4 17.7-4.1-17.8c-0.1-0.6-0.4-1.3-0.8-1.8-0.3-0.5-0.7-1-1.2-1.4-1-0.8-2.3-1.3-3.6-1.3h-12.8c-1.3 0-2.6 0.5-3.6 1.3s-1.7 2-1.9 3.3l-10 51.6c-0.3 1.5 0.1 3 1 4.2 0.9 1.1 2.4 1.8 3.9 1.8h168.1z"/>
   </g>
   <path class="st0" d="m259.2 68.9c-0.5-5.7-4-9.5-9.6-10.8-2.7-0.6-5.6-0.9-8.3-0.7-8.2 0.4-14.4 4.2-17.8 12-2 4.6-2.8 9.6-3 13.7 0 9 3.6 13.7 11.2 15.1 3.1 0.6 6.3 0.5 9.4 0.2 5.5-0.6 10.2-3.2 13.3-7.9 4.2-6.5 5.4-14 4.8-21.6zm-13.7 15.7c-1.4 3.1-3.8 4.5-6.7 4.4-4.6 0.1-7-2-6.6-6.2 0.3-3.8 1-7.6 2.2-11.1 1.6-4.9 6-5.9 10.2-4.8 2.1 0.6 3.3 2.3 3.3 5.1 0 4.3-0.6 8.6-2.4 12.6zm-64.7-17.9c-0.1 0-0.1 0-0.1 0.1l-3.4 17.8c-0.5 2.7 0.7 4.6 2.6 4.9 2.7 0.5 5.6 0.1 7.9 0 0.1 0 0.1 0.1 0.1 0.1l-1.2 6.2c-0.1 0.5-0.3 0.9-0.8 1.1-1.1 0.6-3.7 1.6-8.8 1.6-10.8 0-12.1-7.9-10.8-15.3l3.2-16.5c0-0.1 0-0.1-0.1-0.1h-5.6c-0.9 0-1.5-0.7-1.3-1.6l1.1-5.6c0.2-0.9 1-1.6 1.9-1.6h5.6c0.1 0 0.1 0 0.1-0.1l1.7-8.7c0.2-0.9 1-1.6 1.9-1.6h8c0.9 0 1.5 0.7 1.3 1.6l-1.7 8.6c0 0.1 0 0.1 0.1 0.1h16.3c0.1 0 0.1 0 0.1-0.1l1.7-8.7c0.2-0.9 1-1.6 1.9-1.6h8c0.9 0 1.5 0.7 1.3 1.6l-1.7 8.6c0 0.1 0 0.1 0.1 0.1h9.4c0.9 0 1.5 0.7 1.3 1.6l-1.1 5.6c-0.2 0.9-1 1.6-1.9 1.6h-9.4c-0.1 0-0.1 0-0.1 0.1l-3.4 17.8c-0.5 2.7 0.7 4.6 2.6 4.9 2.7 0.5 5.6 0.1 7.9 0 0.1 0 0.1 0.1 0.1 0.1l-1.2 6.2c-0.1 0.5-0.3 0.9-0.8 1.1-1.1 0.6-3.7 1.6-8.8 1.6-10.8 0-12.2-7.9-10.8-15.3l3.2-16.5c0-0.1 0-0.1-0.1-0.1h-16.3zm-31.8-8.7c-2.6-0.6-5.4-0.7-8-0.5-8.5 0.5-15 4.4-18.5 12.6-2 4.6-2.9 9.6-3 14.6-0.1 7 3.5 13.2 14.4 13.9 9.1 0.6 15.2-1.2 17.6-1.9 0.6-0.2 1-0.6 1.1-1.2l1.4-7c0-0.1-0.1-0.2-0.2-0.1-4 1.1-7.2 1.9-14.3 1.8-7.8-0.1-8.8-3.3-8.6-7.2 0-0.1 0.1-0.1 0.1-0.1 1.3 0 10.7 0.1 14.8-0.1 6.4-0.3 11.8-3 12.8-10.9 0.8-7.5-2.8-12.7-9.6-13.9zm-1.3 13.6c-0.3 2.3-1.6 3.2-4.2 3.1h-11.2c-0.1 0-0.1-0.1-0.1-0.1 0.2-1 0.6-2.6 1.9-4.6 2.4-3.6 6.3-4.5 10.3-3.6 2.3 0.6 3.7 2.5 3.3 5.2zm-27.3-26.2-9.9 50.9c-0.2 0.9-1 1.6-1.9 1.6h-12.5c-0.9 0-1.8-0.7-2-1.6l-7.8-33.7c0-0.1-0.2-0.1-0.2 0l-6.6 33.7c-0.2 0.9-1 1.6-1.9 1.6h-8.9c-0.9 0-1.5-0.7-1.3-1.6l9.9-50.9c0.2-0.9 1-1.6 1.9-1.6h12.2c0.9 0 1.8 0.7 2 1.6l7.9 34.2c0 0.1 0.2 0.1 0.2 0l6.7-34.2c0.2-0.9 1-1.6 1.9-1.6h8.9c1 0 1.5 0.7 1.4 1.6z" fill="#ffe500"/>
  </g>
 </g>
</svg>
